HIERARCHY
ROOT Hips
{
	OFFSET 0.000000 0.000000 0.000000
	CHANNELS 6 Xposition Yposition Zposition Xrotation Yrotation Zrotation
	JOINT LeftUpLeg_virtual
	{
		OFFSET 0.000000 0.000000 0.000000
		CHANNELS 3 Xrotation Yrotation Zrotation
		JOINT LeftUpLeg
		{
			OFFSET 13.026900 -6.336304 -1.092800
			CHANNELS 3 Xrotation Yrotation Zrotation
			JOINT LeftLeg
			{
				OFFSET 0.524474 -46.096886 9.782700
				CHANNELS 3 Xrotation Yrotation Zrotation
				JOINT LeftFoot
				{
					OFFSET -0.524474 -53.427422 -12.948200
					CHANNELS 3 Xrotation Yrotation Zrotation
					JOINT LeftToeBase
					{
						OFFSET 0.192200 -14.009700 16.364100
						CHANNELS 3 Xrotation Yrotation Zrotation
						JOINT LeftToe_End
						{
							OFFSET -1.784700 -0.561700 9.474800
							CHANNELS 3 Xrotation Yrotation Zrotation
							End Site
							{
								OFFSET 0 0 0
							}
						}
					}
				}
			}
		}
	}
	JOINT RightUpLeg_virtual
	{
		OFFSET 0.000000 0.000000 0.000000
		CHANNELS 3 Xrotation Yrotation Zrotation
		JOINT RightUpLeg
		{
			OFFSET -12.883000 -6.336304 -1.092800
			CHANNELS 3 Xrotation Yrotation Zrotation
			JOINT RightLeg
			{
				OFFSET -0.524587 -46.096825 9.782800
				CHANNELS 3 Xrotation Yrotation Zrotation
				JOINT RightFoot
				{
					OFFSET 0.524587 -53.427383 -12.948300
					CHANNELS 3 Xrotation Yrotation Zrotation
					JOINT RightToeBase
					{
						OFFSET -0.192200 -14.009700 16.364100
						CHANNELS 3 Xrotation Yrotation Zrotation
						JOINT RightToe_End
						{
							OFFSET 1.784700 -0.561700 9.474800
							CHANNELS 3 Xrotation Yrotation Zrotation
							End Site
							{
								OFFSET 0 0 0
							}
						}
					}
				}
			}
		}
	}
	JOINT Spine_virtual
	{
		OFFSET 0.000000 0.000000 0.000000
		CHANNELS 3 Xrotation Yrotation Zrotation
		JOINT Spine
		{
			OFFSET 0.072000 7.257294 -0.789700
			CHANNELS 3 Xrotation Yrotation Zrotation
			JOINT Spine1
			{
				OFFSET 0.000000 12.508769 -0.658067
				CHANNELS 3 Xrotation Yrotation Zrotation
				JOINT Spine1_split
				{
					OFFSET 0.000000 12.508769 -0.658067
					CHANNELS 3 Xrotation Yrotation Zrotation
					JOINT Spine2
					{
						OFFSET 0.000000 12.508769 -0.658067
						CHANNELS 3 Xrotation Yrotation Zrotation
						JOINT Neck_virtual
						{
							OFFSET 0.000000 0.000000 0.000000
							CHANNELS 3 Xrotation Yrotation Zrotation
							JOINT Neck
							{
								OFFSET 0.000000 14.033295 7.520400
								CHANNELS 3 Xrotation Yrotation Zrotation
								JOINT Head
								{
									OFFSET 0.000000 8.198502 5.703100
									CHANNELS 3 Xrotation Yrotation Zrotation
									JOINT HeadTop_End
									{
										OFFSET 0.000000 17.760803 13.332701
										CHANNELS 3 Xrotation Yrotation Zrotation
										End Site
										{
											OFFSET 0 0 0
										}
									}
								}
							}
						}
						JOINT LeftShoulder_virtual
						{
							OFFSET 0.000000 0.000000 0.000000
							CHANNELS 3 Xrotation Yrotation Zrotation
							JOINT LeftShoulder
							{
								OFFSET 6.292450 5.785301 -0.669000
								CHANNELS 3 Xrotation Yrotation Zrotation
								JOINT LeftShoulder_split
								{
									OFFSET 6.292450 5.785301 -0.669000
									CHANNELS 3 Xrotation Yrotation Zrotation
									JOINT LeftArm
									{
										OFFSET 13.907140 -6.093903 1.965100
										CHANNELS 3 Xrotation Yrotation Zrotation
										JOINT LeftForeArm
										{
											OFFSET 34.140198 0.000000 0.000000
											CHANNELS 3 Xrotation Yrotation Zrotation
											JOINT LeftHand
											{
												OFFSET 40.960209 0.000000 0.000000
												CHANNELS 3 Xrotation Yrotation Zrotation
												End Site
												{
													OFFSET 0 0 0
												}
											}
										}
									}
								}
							}
						}
						JOINT RightShoulder_virtual
						{
							OFFSET 0.000000 0.000000 0.000000
							CHANNELS 3 Xrotation Yrotation Zrotation
							JOINT RightShoulder
							{
								OFFSET -6.292450 5.785301 -0.669000
								CHANNELS 3 Xrotation Yrotation Zrotation
								JOINT RightShoulder_split
								{
									OFFSET -6.292450 5.785301 -0.669000
									CHANNELS 3 Xrotation Yrotation Zrotation
									JOINT RightArm
									{
										OFFSET -13.907140 -6.093903 1.965100
										CHANNELS 3 Xrotation Yrotation Zrotation
										JOINT RightForeArm
										{
											OFFSET -34.140198 0.000000 0.000000
											CHANNELS 3 Xrotation Yrotation Zrotation
											JOINT RightHand
											{
												OFFSET -40.960209 0.000000 0.000000
												CHANNELS 3 Xrotation Yrotation Zrotation
												End Site
												{
													OFFSET 0 0 0
												}
											}
										}
									}
								}
							}
						}
					}
				}
			}
		}
	}
}
MOTION
Frames: 8
Frame Time: 0.03333333
-0.538393 107.944237 0.581036 0.000000 0.000000 0.000000 -6.104420 -43.212718 -4.140818 -28.118811 5.790302 13.206259 32.819281 -13.430453 -0.043996 -2.035707 0.430060 -7.881408 -2.319084 -3.217005 0.802955 0.000000 0.000000 0.000000 -6.104420 -43.212718 -4.140818 -3.988337 -13.274052 -16.987068 31.800066 -8.638536 -0.389781 -19.543451 -4.347202 18.458542 -1.784967 -0.356747 0.333176 0.000000 0.000000 0.000000 -6.104420 -43.212718 -4.140818 5.826007 4.834427 -1.150435 11.836540 9.038698 -3.084347 0.000000 0.000000 0.000000 0.000000 0.000000 0.000000 11.836536 9.038698 -3.084347 -4.303011 -1.272907 0.206301 -6.271936 20.437791 -0.377161 0.000000 0.000000 0.000000 11.836536 9.038698 -3.084347 1.392502 -0.696015 -7.877856 0.000000 0.000000 0.000000 -14.260090 2.394331 -63.277092 9.865058 -47.524921 5.927909 0.000000 0.000000 0.000000 11.836536 9.038698 -3.084347 1.410972 9.461535 9.792732 0.000000 0.000000 0.000000 1.220053 -24.270725 60.532914 -6.660708 41.858435 8.043861 0.000000 0.000000 0.000000 
0.036647 108.209244 -0.189671 0.000000 0.000000 0.000000 -6.212665 -43.506232 -4.156107 -27.954057 5.892802 13.421989 31.641907 -12.735841 -0.383188 -1.030047 -0.203274 -7.985784 -2.202419 -2.954494 0.600545 0.000000 0.000000 0.000000 -6.212665 -43.506232 -4.156107 -4.928229 -13.809878 -17.040880 32.088369 -7.475008 -0.494788 -18.954840 -4.079405 17.763464 -1.552919 -0.401364 0.295864 0.000000 0.000000 0.000000 -6.212665 -43.506232 -4.156107 5.911356 4.794999 -1.276767 11.981813 8.966217 -3.057287 0.000000 0.000000 0.000000 0.000000 0.000000 0.000000 11.981820 8.966204 -3.057287 -4.631376 -1.213641 0.393660 -6.738245 20.342054 -0.503911 0.000000 0.000000 0.000000 11.981820 8.966204 -3.057287 1.424249 -0.917267 -7.638834 0.000000 0.000000 0.000000 -13.828630 2.336951 -63.082917 10.239111 -47.620786 6.058596 0.000000 0.000000 0.000000 11.981820 8.966204 -3.057287 1.548607 9.197633 9.728925 0.000000 0.000000 0.000000 -0.123839 -23.268378 59.659940 -6.921683 41.713410 8.099078 0.000000 0.000000 0.000000 
0.764931 109.035995 -1.912483 0.000000 0.000000 0.000000 -5.663716 -43.956768 -3.988582 -27.744085 6.150567 14.353267 28.478718 -11.130299 -0.941826 1.306645 -1.825174 -8.497980 -1.570854 -2.683665 0.438492 0.000000 0.000000 0.000000 -5.663716 -43.956768 -3.988582 -6.690415 -15.128172 -16.173275 31.746743 -5.882815 -1.084649 -17.618985 -3.455565 16.330945 -1.246395 -0.549764 -0.000086 0.000000 0.000000 0.000000 -5.663716 -43.956768 -3.988582 6.091160 4.683004 -1.472032 12.291220 8.793645 -2.923258 0.000000 0.000000 0.000000 0.000000 0.000000 0.000000 12.291222 8.793648 -2.923260 -5.600549 -0.771450 0.762561 -7.478245 20.278627 -0.915327 0.000000 0.000000 0.000000 12.291222 8.793648 -2.923260 1.559696 -0.881998 -6.930226 0.000000 0.000000 0.000000 -13.113720 2.571166 -63.632283 10.587736 -46.992125 6.307627 0.000000 0.000000 0.000000 12.291222 8.793648 -2.923260 1.892360 8.982956 9.354384 0.000000 0.000000 0.000000 -2.904479 -20.756048 58.240162 -6.773790 40.936882 8.076141 0.000000 0.000000 0.000000 
1.787308 109.966354 -4.759109 0.000000 0.000000 0.000000 -3.152559 -44.809839 -2.951591 -28.951427 6.252993 15.946711 24.088831 -8.348944 -1.195361 4.907426 -4.065951 -9.447113 -0.775934 -2.278176 0.178865 0.000000 0.000000 0.000000 -3.152559 -44.809839 -2.951591 -10.732123 -16.739498 -14.507921 31.762627 -4.386505 -1.624557 -15.552624 -2.399169 14.183847 -2.195937 -0.819820 -0.000420 0.000000 0.000000 0.000000 -3.152559 -44.809839 -2.951591 6.200027 4.475002 -1.849152 12.436823 8.542449 -2.825185 0.000000 0.000000 0.000000 0.000000 0.000000 0.000000 12.436823 8.542468 -2.825194 -8.635363 -0.013872 1.886929 -6.717754 20.541015 -1.709470 0.000000 0.000000 0.000000 12.436823 8.542468 -2.825194 1.771125 -0.000339 -5.528473 0.000000 0.000000 0.000000 -12.652764 3.419919 -65.556490 10.459396 -46.149467 6.937301 0.000000 0.000000 0.000000 12.436823 8.542468 -2.825194 2.360577 9.141297 8.789007 0.000000 0.000000 0.000000 -6.224307 -16.843475 56.255921 -6.050937 40.787649 8.249148 0.000000 0.000000 0.000000 
2.923229 109.823166 -8.517620 0.000000 0.000000 0.000000 0.002521 -45.527527 -1.228180 -31.814314 6.239686 17.274568 20.951634 -5.944877 -0.468491 8.424617 -6.647904 -10.794723 0.006131 -1.760587 -0.172966 0.000000 0.000000 0.000000 0.002521 -45.527527 -1.228180 -16.989640 -18.309925 -13.049861 34.574370 -0.103290 -1.308890 -14.955616 -0.880648 9.749188 -3.203627 -1.041806 -0.001285 0.000000 0.000000 0.000000 0.002521 -45.527527 -1.228180 6.636738 4.160692 -2.519630 13.241660 8.206910 -3.093098 0.000000 0.000000 0.000000 0.000000 0.000000 0.000000 13.241665 8.206909 -3.093098 -14.755124 0.426294 3.845971 -4.690766 20.494732 -2.064062 0.000000 0.000000 0.000000 13.241665 8.206909 -3.093098 1.992652 1.215094 -3.765832 0.000000 0.000000 0.000000 -14.362810 4.724940 -68.730616 8.308362 -45.005482 8.233587 0.000000 0.000000 0.000000 13.241665 8.206909 -3.093098 2.869190 10.136831 7.947073 0.000000 0.000000 0.000000 -9.208149 -13.910463 54.681736 -5.944570 45.337054 8.468016 0.000000 0.000000 0.000000 
3.730700 107.785789 -12.699703 0.000000 0.000000 0.000000 1.746471 -44.337159 0.156265 -36.157785 5.866336 17.611312 21.083156 -6.122447 0.800045 10.712605 -9.417246 -12.330515 0.450246 -1.750493 -0.205358 0.000000 0.000000 0.000000 1.746471 -44.337159 0.156265 -25.808225 -19.662136 -13.304806 43.710865 9.009876 -1.080960 -13.520231 1.176834 5.649795 -6.751443 -0.667321 -4.572136 0.000000 0.000000 0.000000 1.746471 -44.337159 0.156265 7.574573 3.679987 -3.476467 15.050272 7.672923 -3.642612 0.000000 0.000000 0.000000 0.000000 0.000000 0.000000 15.050274 7.672943 -3.642619 -21.379856 0.319388 4.903303 -4.325394 18.935791 -0.750707 0.000000 0.000000 0.000000 15.050274 7.672943 -3.642619 2.274600 2.164881 -2.637893 0.000000 0.000000 0.000000 -19.319127 2.677742 -69.781775 5.241573 -42.488848 9.295753 0.000000 0.000000 0.000000 15.050274 7.672943 -3.642619 3.480486 11.533877 6.196976 0.000000 0.000000 0.000000 -12.807381 -12.946344 55.536056 -6.041686 52.591815 6.029699 0.000000 0.000000 0.000000 
3.990827 103.761452 -16.623508 0.000000 0.000000 0.000000 3.250446 -39.977790 0.979802 -43.741378 4.514146 17.049324 25.093398 -8.591241 1.885306 12.088164 -12.132226 -13.106493 0.418818 -1.819861 -0.351258 0.000000 0.000000 0.000000 3.250446 -39.977790 0.979802 -37.353406 -20.056943 -15.893756 59.328498 13.640374 -1.256869 -11.774028 2.319367 -0.936844 -1.677106 -1.434194 0.007484 0.000000 0.000000 0.000000 3.250446 -39.977790 0.979802 8.354961 3.085190 -4.263031 16.550354 7.021424 -3.819293 0.000000 0.000000 0.000000 0.000000 0.000000 0.000000 16.550365 7.021413 -3.819283 -24.130782 -0.016508 3.945020 -6.499115 15.550905 1.133556 0.000000 0.000000 0.000000 16.550365 7.021413 -3.819283 2.551237 1.952123 -2.461244 0.000000 0.000000 0.000000 -24.625967 -3.096982 -68.005598 2.937000 -40.285088 10.315316 0.000000 0.000000 0.000000 16.550365 7.021413 -3.819283 4.351252 11.873066 3.413785 0.000000 0.000000 0.000000 -15.922552 -11.485263 58.020319 -3.879373 57.341747 -0.467458 0.000000 0.000000 0.000000 
3.901889 98.771866 -18.372402 0.000000 0.000000 0.000000 6.308411 -35.899461 2.172656 -53.948881 1.867778 16.470194 32.697499 -9.876202 2.021344 12.267901 -14.251670 -12.642639 -0.141190 -1.503017 -0.335914 0.000000 0.000000 0.000000 6.308411 -35.899461 2.172656 -47.839584 -21.681397 -16.574451 73.570911 19.955569 -1.937209 -10.397036 4.734322 -18.846794 -3.251237 -1.562625 -0.196636 0.000000 0.000000 0.000000 6.308411 -35.899461 2.172656 9.415464 2.575254 -4.317741 18.680523 6.342858 -3.712575 0.000000 0.000000 0.000000 0.000000 0.000000 0.000000 18.680514 6.342847 -3.712568 -27.933561 -0.273804 3.497550 -9.319823 12.564656 2.011973 0.000000 0.000000 0.000000 18.680514 6.342847 -3.712568 2.409787 -0.023700 -1.069147 0.000000 0.000000 0.000000 -26.943681 -8.028737 -65.406274 -3.859296 -39.704986 6.470757 0.000000 0.000000 0.000000 18.680514 6.342847 -3.712568 5.273181 11.729661 1.488834 0.000000 0.000000 0.000000 -17.310160 -10.627650 58.132123 1.378230 66.741221 -10.106013 0.000000 0.000000 0.000000 
